<svg xmlns="http://www.w3.org/2000/svg" viewBox="0 0 388.667 90.667" enable-background="new 0 0 388.667 90.667"><path fill="#B1B1B1" d="M366.47 5.647H262.127c-5.202 0-4.97 4.89-4.97 4.89v66.17H371.44v-66.17c-.002 0 .23-4.89-4.973-4.89z"/><path fill="#fff" stroke="#B1B1B1" stroke-miterlimit="10" d="M262.1 10.537h104.982v62.076H262.1z"/><path fill="#E6E6E6" stroke="#B1B1B1" stroke-width=".25" stroke-miterlimit="10" d="M243.092 76.707s0 9.65 7.896 9.65H376.44s9.065-.585 9.065-9.65H243.092z"/><path fill="#B1B1B1" d="M315.176 76.707h-15.06s.213 4.825 4.094 4.825h21.932c3.88 0 4.094-4.825 4.094-4.825h-15.06z"/><path fill="none" stroke="#B1B1B1" stroke-miterlimit="10" d="M315.176 76.707"/><path fill="none" stroke="#B1B1B1" stroke-width=".25" stroke-miterlimit="10" d="M326.565 67.325h-23.868"/><path fill="#EDEDED" d="M331.834 44.746h23.868v22.58h-23.868zM274.137 55.915h23.868v11.41h-23.868z"/><path fill="none" stroke="#B1B1B1" stroke-width=".25" stroke-miterlimit="10" d="M331.834 20.722h23.868M331.834 22.583h23.868M331.834 24.445h23.868M331.834 26.306h23.868M331.834 28.168h23.868M331.834 30.03h23.868M331.834 31.89h23.868M331.834 33.752h23.868M331.834 35.614h23.868M331.834 37.475h23.868M331.834 39.337h23.868M331.834 41.198h23.868M326.565 65.222h-23.868M326.565 63.36h-23.868M326.565 61.5h-23.868M326.565 59.638h-23.868M326.565 57.776h-23.868M326.565 55.915h-23.868"/><path fill="#EDEDED" d="M274.137 18.62h52.428v23.777h-52.428zM302.697 44.746h23.868v9.307h-23.868z"/><path fill="none" stroke="#B1B1B1" stroke-width=".25" stroke-miterlimit="10" d="M298.005 54.053h-23.868M298.005 52.192h-23.868M298.005 50.33h-23.868M298.005 48.47h-23.868M298.005 46.607h-23.868M298.005 44.746h-23.868"/><path fill="#B1B1B1" d="M143.596 77.883c0 4.97 4.03 9 9 9h37.862c4.97 0 9-4.03 9-9V21.95c0-4.97-4.03-9-9-9h-37.862c-4.97 0-9 4.03-9 9v55.933z"/><path fill="#fff" d="M193.266 74.497H149.9c-1.284 0-2.325-1.04-2.325-2.325V20.944c0-1.284 1.04-2.325 2.325-2.325h43.366c1.284 0 2.325 1.04 2.325 2.324v51.23c0 1.282-1.04 2.323-2.324 2.323z"/><path fill="#EDEDED" d="M155.808 47.63h14.78v21.218h-14.78zM173.392 26.257h14.88V68.85h-14.88z"/><path fill="none" stroke="#B1B1B1" stroke-width=".25" stroke-miterlimit="10" d="M155.808 28.096h14.78M155.808 29.724h14.78M155.808 31.35h14.78M155.808 32.98h14.78M155.808 34.607h14.78M155.808 36.235h14.78M155.808 37.863h14.78M155.808 39.49h14.78M155.808 41.118h14.78M155.808 42.746h14.78M155.808 44.374h14.78M155.808 46.002h14.78M155.808 26.468h14.78"/><path fill="#fff" d="M172.336 81.655h-.6c-.98 0-1.782-.802-1.782-1.782v-.6c0-.98.802-1.782 1.782-1.782h.6c.98 0 1.782.803 1.782 1.783v.6c0 .98-.8 1.782-1.782 1.782z"/><path fill="#B1B1B1" d="M228.632 87.136h-15.786c-1.52 0-2.762-1.243-2.762-2.762v-31.05c0-1.52 1.243-2.763 2.762-2.763h15.786c1.52 0 2.762 1.244 2.762 2.763v31.05c0 1.52-1.243 2.763-2.762 2.763z"/><path fill="#fff" d="M222.132 53.38h-2.763c-.186 0-.337-.152-.337-.337 0-.185.15-.336.336-.336h2.762c.185 0 .336.15.336.336 0 .185-.15.336-.336.336zM227.768 81.88h-14.034c-.93 0-1.685-.755-1.685-1.686V56.916c0-.93.753-1.685 1.684-1.685h14.034c.93 0 1.685.755 1.685 1.686v23.278c0 .93-.755 1.685-1.685 1.685z"/><circle fill="#fff" cx="220.537" cy="84.73" r="1.111"/><circle fill="#1D1D1B" cx="7.937" cy="83.987" r="2.318"/><path fill="#B1B1B1" d="M5.62 37.345h4.635v46.64H5.62z"/><path fill="#fff" d="M5.62 79.162h4.635v1.23H5.62zM5.78 37.22l1.733-6.656h1.22L10.1 37.22z"/><path fill="#B1B1B1" d="M8.63 30.69l1.317 6.405H5.942L7.61 30.69h1.02m.205-.25h-1.42L5.62 37.344h4.636l-1.42-6.906z"/><path fill="#1D1D1B" d="M8.835 30.44l-.71-2.46-.71 2.46z"/><path fill="#fff" stroke="#B1B1B1" stroke-width=".25" stroke-miterlimit="10" d="M77.008 6.81v10.98h-11.23V85.9h63.566V6.81z"/><path fill="#B1B1B1" d="M77.008 6.81l-11.23 10.98h11.23z"/><path fill="#EDEDED" d="M79.918 43.264h16.287v23.384H79.918zM99.297 19.71h16.397V66.65H99.297z"/><g fill="none" stroke="#B1B1B1" stroke-width=".25" stroke-miterlimit="10"><path d="M79.918 21.738h16.287M79.918 23.532h16.287M79.918 25.326h16.287M79.918 27.12h16.287M79.918 28.913h16.287M79.918 30.707h16.287M79.918 32.5h16.287M79.918 34.295h16.287M79.918 36.09h16.287M79.918 37.883h16.287M79.918 39.676h16.287M79.918 41.47h16.287M79.918 19.944h16.287"/></g><path fill="#fff" stroke="#B1B1B1" stroke-width=".25" stroke-miterlimit="10" d="M15.673 29.61h44.38v56.15h-44.38z"/><path fill="#D9D9D9" d="M21.617 31.71v-3.3c0-.325-.266-.59-.59-.59-.326 0-.592.265-.592.59v3.3c-.476.223-.806.705-.806 1.265 0 .772.625 1.397 1.396 1.397.772 0 1.397-.626 1.397-1.397 0-.56-.33-1.042-.806-1.265zM25.805 31.71v-3.3c0-.325-.266-.59-.59-.59-.326 0-.592.265-.592.59v3.3c-.476.223-.806.705-.806 1.265 0 .772.626 1.397 1.397 1.397.772 0 1.397-.626 1.397-1.397 0-.56-.33-1.042-.805-1.265zM29.993 31.71v-3.3c0-.325-.266-.59-.59-.59-.326 0-.592.265-.592.59v3.3c-.475.223-.805.705-.805 1.265 0 .772.626 1.397 1.397 1.397.772 0 1.397-.626 1.397-1.397 0-.56-.33-1.042-.807-1.265zM34.18 31.71v-3.3c0-.325-.265-.59-.59-.59-.325 0-.59.265-.59.59v3.3c-.477.223-.807.705-.807 1.265 0 .772.626 1.397 1.397 1.397.772 0 1.397-.626 1.397-1.397 0-.56-.33-1.042-.806-1.265zM38.37 31.71v-3.3c0-.325-.267-.59-.592-.59-.325 0-.59.265-.59.59v3.3c-.477.223-.807.705-.807 1.265 0 .772.627 1.397 1.398 1.397.772 0 1.397-.626 1.397-1.397 0-.56-.33-1.042-.806-1.265zM42.556 31.71v-3.3c0-.325-.266-.59-.59-.59-.326 0-.592.265-.592.59v3.3c-.476.223-.806.705-.806 1.265 0 .772.626 1.397 1.397 1.397.772 0 1.397-.626 1.397-1.397 0-.56-.33-1.042-.806-1.265zM46.915 31.71v-3.3c0-.325-.266-.59-.59-.59-.326 0-.592.265-.592.59v3.3c-.476.223-.806.705-.806 1.265 0 .772.626 1.397 1.397 1.397.772 0 1.397-.626 1.397-1.397 0-.56-.33-1.042-.805-1.265zM51.103 31.71v-3.3c0-.325-.266-.59-.59-.59-.326 0-.592.265-.592.59v3.3c-.475.223-.805.705-.805 1.265 0 .772.626 1.397 1.397 1.397.772 0 1.397-.626 1.397-1.397 0-.56-.332-1.042-.807-1.265zM55.29 31.71v-3.3c0-.325-.266-.59-.59-.59-.326 0-.592.265-.592.59v3.3c-.476.223-.806.705-.806 1.265 0 .772.626 1.397 1.397 1.397.77 0 1.396-.626 1.396-1.397 0-.56-.33-1.042-.806-1.265z"/><path fill="none" stroke="#B1B1B1" stroke-width=".25" stroke-miterlimit="10" d="M19.77 47.94h36.016M19.77 50.24h36.016M19.77 52.54h36.016M19.77 54.84h36.016M19.77 57.142h36.016M19.77 59.443h36.016M19.77 61.744h36.016M19.77 64.044h36.016M19.77 66.345h36.016M19.77 68.646h36.016M19.77 70.947h36.016M19.77 73.247h36.016M19.77 45.638h36.016"/><path fill="#EDEDED" d="M214.945 58.24h11.61v7.436h-11.61zM214.945 70.365h11.61V79.4h-11.61zM221.27 66.41h5.286v2.912h-5.286z"/><path fill="none" stroke="#B1B1B1" stroke-width=".1" stroke-miterlimit="10" d="M220.23 69.322h-5.285M220.23 68.74h-5.285M220.23 68.157h-5.285M220.23 67.575h-5.285M220.23 66.993h-5.285M220.23 66.41h-5.285"/></svg>