<svg xmlns="http://www.w3.org/2000/svg" viewBox="0 0 225.776 80.45" enable-background="new 0 0 225.776 80.45"><path fill="#B1B1B1" d="M137.977 71.196c0 4.97 4.03 9 9 9h37.862c4.97 0 9-4.03 9-9V15.263c0-4.97-4.03-9-9-9h-37.863c-4.97 0-9 4.03-9 9v55.933z"/><path fill="#fff" d="M187.648 67.81h-43.366c-1.284 0-2.325-1.04-2.325-2.324v-51.23c0-1.283 1.04-2.324 2.325-2.324h43.366c1.284 0 2.325 1.04 2.325 2.325v51.23c0 1.283-1.04 2.324-2.325 2.324z"/><path fill="#EDEDED" d="M150.19 40.943h14.778v21.22h-14.78zM167.774 19.57h14.88v42.593h-14.88z"/><path fill="none" stroke="#B1B1B1" stroke-width=".25" stroke-miterlimit="10" d="M150.19 21.41h14.78M150.19 23.037h14.78M150.19 24.665h14.78M150.19 26.293h14.78M150.19 27.92h14.78M150.19 29.55h14.78M150.19 31.176h14.78M150.19 32.804h14.78M150.19 34.432h14.78M150.19 36.06h14.78M150.19 37.688h14.78M150.19 39.315h14.78M150.19 19.782h14.78"/><path fill="#fff" d="M166.718 74.97h-.6c-.98 0-1.782-.803-1.782-1.783v-.6c0-.98.802-1.782 1.782-1.782h.6c.98 0 1.782.802 1.782 1.782v.6c0 .98-.802 1.782-1.782 1.782z"/><path fill="#B1B1B1" d="M223.014 80.45h-15.786c-1.52 0-2.762-1.243-2.762-2.762v-31.05c0-1.52 1.243-2.763 2.762-2.763h15.786c1.52 0 2.762 1.243 2.762 2.762v31.05c0 1.52-1.243 2.763-2.762 2.763z"/><path fill="#fff" d="M216.514 46.693h-2.763c-.184 0-.335-.15-.335-.336 0-.185.15-.336.336-.336h2.764c.185 0 .336.152.336.337 0 .184-.15.336-.336.336zM222.15 75.193h-14.035c-.93 0-1.685-.754-1.685-1.685V50.23c0-.93.754-1.685 1.685-1.685h14.034c.93 0 1.684.754 1.684 1.685v23.278c0 .93-.754 1.685-1.685 1.685z"/><circle fill="#fff" cx="214.919" cy="78.043" r="1.111"/><circle fill="#1D1D1B" cx="2.318" cy="77.3" r="2.318"/><path fill="#B1B1B1" d="M0 30.66h4.636V77.3H0z"/><path fill="#fff" d="M0 72.475h4.636v1.23H0zM.162 30.534l1.732-6.656h1.22l1.37 6.656z"/><path fill="#B1B1B1" d="M3.013 24.003L4.33 30.41H.323l1.667-6.407h1.023m.204-.25h-1.42L0 30.66h4.636l-1.42-6.907z"/><path fill="#1D1D1B" d="M3.217 23.753l-.71-2.46-.71 2.46z"/><path fill="#fff" stroke="#B1B1B1" stroke-width=".25" stroke-miterlimit="10" d="M71.39.125v10.98H60.16v68.11h63.566V.124z"/><path fill="#B1B1B1" d="M71.39.125l-11.23 10.98h11.23z"/><path fill="#EDEDED" d="M74.3 36.578h16.287v23.384H74.3zM93.678 13.025h16.397v46.937H93.678z"/><g fill="none" stroke="#B1B1B1" stroke-width=".25" stroke-miterlimit="10"><path d="M74.3 15.052h16.287M74.3 16.845h16.287M74.3 18.64h16.287M74.3 20.433h16.287M74.3 22.227h16.287M74.3 24.02h16.287M74.3 25.815h16.287M74.3 27.61h16.287M74.3 29.403h16.287M74.3 31.196h16.287M74.3 32.99h16.287M74.3 34.784h16.287M74.3 13.258h16.287"/></g><path fill="#fff" stroke="#B1B1B1" stroke-width=".25" stroke-miterlimit="10" d="M10.054 22.925h44.38v56.148h-44.38z"/><path fill="#D9D9D9" d="M16 25.024v-3.3c0-.325-.267-.59-.592-.59-.325 0-.59.265-.59.59v3.3c-.477.223-.807.705-.807 1.265 0 .77.627 1.396 1.398 1.396.772 0 1.397-.626 1.397-1.397 0-.562-.33-1.044-.806-1.266zM20.187 25.024v-3.3c0-.325-.266-.59-.59-.59-.326 0-.592.265-.592.59v3.3c-.476.223-.806.705-.806 1.265 0 .77.625 1.396 1.396 1.396.772 0 1.397-.626 1.397-1.397 0-.562-.33-1.044-.806-1.266zM24.375 25.024v-3.3c0-.325-.266-.59-.59-.59-.326 0-.592.265-.592.59v3.3c-.476.223-.806.705-.806 1.265 0 .77.626 1.396 1.397 1.396.772 0 1.397-.626 1.397-1.397 0-.562-.33-1.044-.805-1.266zM28.562 25.024v-3.3c0-.325-.266-.59-.59-.59-.326 0-.592.265-.592.59v3.3c-.476.223-.806.705-.806 1.265 0 .77.626 1.396 1.397 1.396.773 0 1.398-.626 1.398-1.397 0-.562-.33-1.044-.806-1.266zM32.75 25.024v-3.3c0-.325-.266-.59-.59-.59-.326 0-.592.265-.592.59v3.3c-.476.223-.806.705-.806 1.265 0 .77.626 1.396 1.397 1.396.77 0 1.396-.626 1.396-1.397 0-.562-.33-1.044-.806-1.266zM36.938 25.024v-3.3c0-.325-.266-.59-.59-.59-.326 0-.592.265-.592.59v3.3c-.476.223-.806.705-.806 1.265 0 .77.626 1.396 1.397 1.396.772 0 1.397-.626 1.397-1.397 0-.562-.33-1.044-.806-1.266zM41.296 25.024v-3.3c0-.325-.266-.59-.59-.59-.326 0-.592.265-.592.59v3.3c-.476.223-.806.705-.806 1.265 0 .77.626 1.396 1.397 1.396.772 0 1.397-.626 1.397-1.397 0-.562-.33-1.044-.806-1.266zM45.484 25.024v-3.3c0-.325-.266-.59-.59-.59-.326 0-.592.265-.592.59v3.3c-.476.223-.806.705-.806 1.265 0 .77.626 1.396 1.397 1.396.772 0 1.397-.626 1.397-1.397 0-.562-.33-1.044-.806-1.266zM49.672 25.024v-3.3c0-.325-.266-.59-.59-.59-.326 0-.592.265-.592.59v3.3c-.476.223-.806.705-.806 1.265 0 .77.626 1.396 1.397 1.396.773 0 1.398-.626 1.398-1.397 0-.562-.33-1.044-.806-1.266z"/><path fill="none" stroke="#B1B1B1" stroke-width=".25" stroke-miterlimit="10" d="M14.15 41.253h36.017M14.15 43.553h36.017M14.15 45.854h36.017M14.15 48.155h36.017M14.15 50.456h36.017M14.15 52.757h36.017M14.15 55.057h36.017M14.15 57.358h36.017M14.15 59.66h36.017M14.15 61.96h36.017M14.15 64.26h36.017M14.15 66.56h36.017M14.15 38.952h36.017"/><path fill="#EDEDED" d="M209.327 51.553h11.61v7.437h-11.61zM209.327 63.68h11.61v9.033h-11.61zM215.652 59.724h5.286v2.91h-5.286z"/><path fill="none" stroke="#B1B1B1" stroke-width=".1" stroke-miterlimit="10" d="M214.613 62.635h-5.286M214.613 62.053h-5.286M214.613 61.47h-5.286M214.613 60.89h-5.286M214.613 60.307h-5.286M214.613 59.724h-5.286"/></svg>