<svg xmlns="http://www.w3.org/2000/svg" viewBox="-499 584 193 31.5" enable-background="new -499 584 193 31.5"><path fill="#464E43" d="M-480.3 589.1l-3.7 2.2c-.7-1.2-1.4-2-2-2.4-.7-.4-1.5-.6-2.5-.6-1.3 0-2.3.4-3.2 1.1-.8.7-1.3 1.6-1.3 2.7 0 1.5 1.1 2.7 3.3 3.6l3 1.2c2.5 1 4.3 2.2 5.4 3.7 1.1 1.4 1.7 3.2 1.7 5.3 0 2.8-.9 5.1-2.8 6.9-1.9 1.8-4.2 2.8-7 2.8-2.6 0-4.8-.8-6.5-2.4-1.7-1.6-2.8-3.8-3.2-6.6l4.6-1c.2 1.8.6 3 1.1 3.7.9 1.3 2.3 2 4.1 2 1.4 0 2.6-.5 3.6-1.4.9-1 1.4-2.2 1.4-3.6 0-.6-.1-1.1-.2-1.6-.2-.5-.4-.9-.8-1.4-.3-.4-.8-.8-1.4-1.2-.5-.4-1.2-.7-2-1l-2.9-1.2c-4.2-1.8-6.2-4.3-6.2-7.7 0-2.3.9-4.2 2.6-5.7 1.7-1.5 3.9-2.3 6.5-2.3 3.7-.2 6.4 1.5 8.4 4.9zm24.4 10l-8.4-14.5h5.2l5.8 10.3 6.1-10.3h5.3l-8.8 14.5 9.2 15.9h-5.1l-6.7-11.6-6.9 11.6h-5.2l9.5-15.9zm149.1-10l-3.7 2.2c-.7-1.2-1.4-2-2-2.4-.7-.4-1.5-.6-2.5-.6-1.3 0-2.3.4-3.2 1.1-.8.7-1.3 1.6-1.3 2.7 0 1.5 1.1 2.7 3.3 3.6l3 1.2c2.5 1 4.3 2.2 5.4 3.7 1.1 1.4 1.7 3.2 1.7 5.3 0 2.8-.9 5.1-2.8 6.9-1.9 1.8-4.2 2.8-7 2.8-2.6 0-4.8-.8-6.5-2.4-1.7-1.6-2.8-3.8-3.2-6.6l4.6-1c.2 1.8.6 3 1.1 3.7.9 1.3 2.3 2 4.1 2 1.4 0 2.6-.5 3.6-1.4.9-1 1.4-2.2 1.4-3.6 0-.6-.1-1.1-.2-1.6-.2-.5-.4-.9-.8-1.4-.3-.4-.8-.8-1.3-1.2-.6-.4-1.2-.7-2-1l-2.9-1.2c-4.2-1.8-6.2-4.3-6.2-7.7 0-2.3.9-4.2 2.6-5.7 1.7-1.5 3.9-2.3 6.5-2.3 3.6-.2 6.4 1.5 8.3 4.9zm-65.2-4.7h-1.6l-14.2 30.6h4.9l3.4-7.4h13l3.2 7.4h5l-13.7-30.6zm-5.6 18.9l4.7-10.3 4.5 10.3h-9.2zm-59.3-18.7h2V615h-2v-30.4zm18.1 0v11.9h-13.1v-11.9h-1V615h1v-14.2h13.1V615h4.6v-30.4h-4.6zm9.2 0h2V615h-2v-30.4zm17.2 4.3v-4.3h-13.2V615h13.2v-4.3h-12.2v-10.2h11.8v-4.3h-11.8v-7.3h12.2zm38.7-4.3h2V615h-2v-30.4zm19 3.9c-1.6-1.4-3.3-2.4-5.2-3-1.8-.6-4.2-.9-7.2-.9h-2.6V615h2.5c3.1 0 5.5-.3 7.1-.8 1.8-.6 3.5-1.6 5.2-3 3.3-2.9 4.9-6.7 4.9-11.3 0-4.8-1.6-8.5-4.7-11.4zm-3.1 19.3c-1.1 1-2.3 1.7-3.7 2.2-1.4.4-3.1.6-5.1.6h-2.1v-21.8h2.1c3.9 0 6.9.9 8.9 2.8 2.2 2.1 3.3 4.8 3.3 8.1 0 3.4-1.2 6.1-3.4 8.1zM-471 584.6h1V615h-1v-30.4zm-3.9 0h2V615h-2v-30.4z"/></svg>