<svg xmlns="http://www.w3.org/2000/svg" viewBox="0 0 193.021 31.547" enable-background="new 0 0 193.021 31.547"><path fill="#464E43" d="M18.708 5.1l-3.72 2.207c-.697-1.208-1.36-1.996-1.99-2.363-.657-.42-1.504-.63-2.54-.63-1.274 0-2.33.362-3.17 1.084-.84.71-1.26 1.603-1.26 2.68 0 1.485 1.1 2.68 3.307 3.586l3.032 1.242c2.47 1 4.274 2.217 5.416 3.656 1.142 1.438 1.713 3.202 1.713 5.29 0 2.8-.933 5.112-2.796 6.938-1.877 1.84-4.208 2.76-6.99 2.76-2.64 0-4.82-.785-6.54-2.355-1.693-1.57-2.75-3.77-3.17-6.608l4.647-1.024c.21 1.786.578 3.02 1.103 3.703.945 1.313 2.324 1.97 4.135 1.97 1.43 0 2.62-.48 3.565-1.438.945-.957 1.417-2.17 1.417-3.64 0-.59-.083-1.132-.246-1.624-.164-.492-.42-.945-.767-1.358s-.798-.8-1.35-1.16c-.55-.36-1.207-.706-1.968-1.034L7.6 15.762c-4.16-1.758-6.242-4.33-6.242-7.714 0-2.283.873-4.19 2.62-5.726C5.723.774 7.895 0 10.497 0c3.504 0 6.24 1.7 8.21 5.1zM43.095 15.104L34.725.59h5.22l5.81 10.3L51.858.59h5.257l-8.763 14.514 9.196 15.892h-5.14l-6.735-11.638-6.932 11.638h-5.2l9.552-15.892zM192.232 5.1l-3.722 2.207c-.695-1.208-1.36-1.996-1.988-2.363-.657-.42-1.504-.63-2.54-.63-1.275 0-2.33.362-3.17 1.084-.842.71-1.262 1.603-1.262 2.68 0 1.485 1.103 2.68 3.31 3.586l3.032 1.242c2.468 1 4.273 2.217 5.416 3.656 1.142 1.438 1.713 3.202 1.713 5.29 0 2.8-.932 5.112-2.796 6.938-1.877 1.84-4.208 2.76-6.99 2.76-2.64 0-4.82-.785-6.54-2.355-1.692-1.568-2.75-3.77-3.17-6.606l4.648-1.025c.21 1.786.578 3.02 1.103 3.703.945 1.313 2.323 1.97 4.135 1.97 1.43 0 2.62-.48 3.564-1.438.946-.957 1.418-2.17 1.418-3.64 0-.59-.082-1.132-.246-1.624-.165-.492-.42-.945-.77-1.358-.347-.413-.796-.8-1.347-1.16-.552-.36-1.21-.706-1.97-1.034l-2.935-1.22c-4.162-1.758-6.242-4.33-6.242-7.714 0-2.283.873-4.19 2.62-5.726C179.248.774 181.423 0 184.02 0c3.506 0 6.244 1.7 8.212 5.1zM126.966.427h-1.598l-14.23 30.57h4.942l3.387-7.385h13.017l3.19 7.384h5.02L126.967.426zm-5.59 18.872l4.727-10.34 4.51 10.34h-9.236z"/><g fill="#464E43"><path d="M62.115.59h2v30.406h-2zM80.23.59v11.895H67.116V.59h-1v30.406h1V16.798H80.23v14.198h4.588V.59z"/></g><g fill="#464E43"><path d="M89.382.59h2v30.406h-2zM106.572 4.904V.59h-13.19v30.406h13.19v-4.312h-12.19V16.522h11.836V12.21H94.382V4.903z"/></g><g fill="#464E43"><path d="M145.26.59h2v30.406h-2zM164.254 4.51c-1.55-1.418-3.276-2.422-5.18-3.013-1.772-.604-4.187-.906-7.246-.906h-2.568v30.406h2.49c3.083 0 5.467-.282 7.146-.847 1.8-.566 3.52-1.57 5.16-3.014 3.27-2.888 4.904-6.67 4.904-11.343 0-4.66-1.568-8.42-4.706-11.283zm-3.084 19.338c-1.103.997-2.338 1.726-3.703 2.185-1.366.433-3.08.65-5.14.65h-2.067V4.903h2.067c3.912 0 6.874.926 8.882 2.777 2.23 2.074 3.347 4.778 3.347 8.113 0 3.31-1.13 5.993-3.387 8.055z"/></g><g fill="#464E43"><path d="M27.98.59h1v30.406h-1zM24.06.59h2v30.406h-2z"/></g></svg>